<?xml version="1.0" encoding="UTF-8"?>
<svg version="1.1" xmlns="http://www.w3.org/2000/svg" width="500" height="500">
<path d="M0 0 C165 0 330 0 500 0 C500 165 500 330 500 500 C335 500 170 500 0 500 C0 335 0 170 0 0 Z " fill="#DEF2FB" transform="translate(0,0)"/>
<path d="M0 0 C1.04542715 -0.00367669 2.0908543 -0.00735338 3.16796106 -0.01114148 C6.67060839 -0.02215339 10.17322603 -0.02601794 13.67588806 -0.02983093 C16.1876688 -0.03609746 18.69944861 -0.04274443 21.21122742 -0.04974365 C28.74759906 -0.06894904 36.28396547 -0.07956842 43.82035533 -0.08847144 C47.37459646 -0.0928612 50.92883612 -0.09822619 54.4830761 -0.10346031 C66.30684252 -0.12046771 78.13060804 -0.13496045 89.9543848 -0.14220905 C93.01959293 -0.14411875 96.08480105 -0.14603912 99.15000916 -0.147995 C100.29268658 -0.14872061 100.29268658 -0.14872061 101.4584484 -0.14946087 C113.79069686 -0.15775598 126.12284817 -0.18308629 138.45505423 -0.21557567 C151.13291801 -0.24870186 163.8107325 -0.2666628 176.48863977 -0.26985329 C183.60008331 -0.27201318 190.71138513 -0.28068511 197.82278633 -0.30631447 C204.51641612 -0.33038342 211.20974761 -0.33381243 217.90342712 -0.32355309 C220.35390508 -0.32305858 222.80439573 -0.32935376 225.25483513 -0.34310913 C244.99544036 -0.44768079 258.41931037 2.01568289 274.85923767 13.39717102 C286.53373036 25.07166371 292.76684772 39.12605686 292.88138658 55.58506715 C292.87760725 56.46990805 292.87382793 57.35474894 292.86993408 58.2664032 C292.87375963 59.23428257 292.87758518 60.20216193 292.88152665 61.19937098 C292.89177667 64.41558878 292.88787978 67.63162538 292.88389587 70.84785461 C292.88824677 73.16480676 292.89343117 75.48175747 292.89938354 77.79870605 C292.91274394 84.07352917 292.91335551 90.34829194 292.91082025 96.62312651 C292.90974856 101.86903001 292.91463895 107.11492141 292.91942567 112.36082232 C292.93114365 125.44750566 292.93030162 138.53415473 292.92386886 151.62084027 C292.91870102 162.96411923 292.92995469 174.30731228 292.94896708 185.65057425 C292.9683778 197.32172621 292.97630491 208.99283392 292.97284383 220.66400206 C292.97103383 227.20690832 292.97363897 233.74973587 292.98755836 240.29262924 C293.00016209 246.44703438 292.99816839 252.60126794 292.98514748 258.75567055 C292.98278773 261.00821936 292.98549468 263.26078035 292.9937706 265.5133152 C293.06387068 286.08382748 290.50785616 303.63366896 275.98423767 319.27217102 C263.58112864 331.13190575 248.20625101 335.30320351 231.52255249 335.28761292 C230.52189556 335.29058404 229.52123862 335.29355516 228.49025875 335.29661632 C225.14506285 335.30527155 221.79990286 335.30680888 218.45469666 335.30830383 C216.05276412 335.31293429 213.65083232 335.31795926 211.24890137 335.323349 C204.72792397 335.33645398 198.20695342 335.3429516 191.6859653 335.34735966 C187.60846309 335.35012851 183.53096322 335.35436705 179.4534626 335.35886383 C168.14778893 335.37105245 156.84211713 335.38135215 145.53643703 335.38473892 C144.45229006 335.38506827 144.45229006 335.38506827 143.34624112 335.38540427 C142.62181705 335.38562255 141.89739297 335.38584083 141.15101665 335.38606572 C139.6832329 335.38650918 138.21544915 335.38695574 136.74766541 335.3874054 C136.01960503 335.38762683 135.29154465 335.38784826 134.54142184 335.38807639 C122.75635189 335.39202056 110.97134392 335.40946475 99.18629789 335.43276492 C87.06549321 335.45653398 74.94471956 335.46894332 62.82389122 335.47010684 C56.02712599 335.47102055 49.23044151 335.47669577 42.43369865 335.49492645 C36.03556834 335.5114563 29.63759076 335.51353873 23.23944664 335.50478745 C20.89904622 335.50401967 18.55863742 335.50832525 16.2182579 335.5182457 C-5.19211544 335.60363384 -24.20404088 333.92444758 -40.39076233 318.14717102 C-50.92339714 305.96707663 -55.72327289 292.91499244 -55.64472961 276.97615051 C-55.64940959 275.49793674 -55.64940959 275.49793674 -55.6541841 273.98986006 C-55.66212166 270.7082507 -55.65585701 267.42682843 -55.64955139 264.1452179 C-55.65226313 261.7841379 -55.6558251 259.42305875 -55.66017151 257.0619812 C-55.66927593 250.66333243 -55.66575924 244.26474828 -55.65941334 237.8660984 C-55.65585217 233.86668403 -55.65653042 229.86727405 -55.65839386 225.86785889 C-55.65870033 225.20281474 -55.65900679 224.5377706 -55.65932254 223.8525736 C-55.65996203 222.50132199 -55.66061046 221.15007037 -55.66126773 219.79881877 C-55.66696346 207.14413917 -55.66042502 194.48948861 -55.64966699 181.83481377 C-55.64073217 170.98921129 -55.64228442 160.14365163 -55.65150452 149.29804993 C-55.66222053 136.686985 -55.66641421 124.07594549 -55.66027999 111.46487665 C-55.65964293 110.11874549 -55.65901418 108.77261432 -55.65839386 107.42648315 C-55.65808531 106.76425388 -55.65777676 106.1020246 -55.65745886 105.41972777 C-55.65573591 100.76509962 -55.65873671 96.11049653 -55.66335297 91.45587158 C-55.66913796 85.18496711 -55.6651083 78.91414337 -55.65356445 72.6432476 C-55.65092406 70.34428987 -55.65167234 68.04532532 -55.65608978 65.74637032 C-55.6615711 62.6035529 -55.65467961 59.46099266 -55.64472961 56.31819153 C-55.64919106 55.41282764 -55.6536525 54.50746375 -55.65824914 53.57466459 C-55.56184489 37.82857517 -49.15761488 24.73171267 -38.15248108 13.70967102 C-26.94425768 3.30996161 -14.99119201 -0.00283867 0 0 Z " fill="#DEF1FB" transform="translate(131.39076232910156,82.85282897949219)"/>
<path d="M0 0 C1.04542715 -0.00367669 2.0908543 -0.00735338 3.16796106 -0.01114148 C6.67060839 -0.02215339 10.17322603 -0.02601794 13.67588806 -0.02983093 C16.1876688 -0.03609746 18.69944861 -0.04274443 21.21122742 -0.04974365 C28.74759906 -0.06894904 36.28396547 -0.07956842 43.82035533 -0.08847144 C47.37459646 -0.0928612 50.92883612 -0.09822619 54.4830761 -0.10346031 C66.30684252 -0.12046771 78.13060804 -0.13496045 89.9543848 -0.14220905 C93.01959293 -0.14411875 96.08480105 -0.14603912 99.15000916 -0.147995 C100.29268658 -0.14872061 100.29268658 -0.14872061 101.4584484 -0.14946087 C113.79069686 -0.15775598 126.12284817 -0.18308629 138.45505423 -0.21557567 C151.13291801 -0.24870186 163.8107325 -0.2666628 176.48863977 -0.26985329 C183.60008331 -0.27201318 190.71138513 -0.28068511 197.82278633 -0.30631447 C204.51641612 -0.33038342 211.20974761 -0.33381243 217.90342712 -0.32355309 C220.35390508 -0.32305858 222.80439573 -0.32935376 225.25483513 -0.34310913 C244.99544036 -0.44768079 258.41931037 2.01568289 274.85923767 13.39717102 C286.53373036 25.07166371 292.76684772 39.12605686 292.88138658 55.58506715 C292.87760725 56.46990805 292.87382793 57.35474894 292.86993408 58.2664032 C292.87375963 59.23428257 292.87758518 60.20216193 292.88152665 61.19937098 C292.89177667 64.41558878 292.88787978 67.63162538 292.88389587 70.84785461 C292.88824677 73.16480676 292.89343117 75.48175747 292.89938354 77.79870605 C292.91274394 84.07352917 292.91335551 90.34829194 292.91082025 96.62312651 C292.90974856 101.86903001 292.91463895 107.11492141 292.91942567 112.36082232 C292.93114365 125.44750566 292.93030162 138.53415473 292.92386886 151.62084027 C292.91870102 162.96411923 292.92995469 174.30731228 292.94896708 185.65057425 C292.9683778 197.32172621 292.97630491 208.99283392 292.97284383 220.66400206 C292.97103383 227.20690832 292.97363897 233.74973587 292.98755836 240.29262924 C293.00016209 246.44703438 292.99816839 252.60126794 292.98514748 258.75567055 C292.98278773 261.00821936 292.98549468 263.26078035 292.9937706 265.5133152 C293.06387068 286.08382748 290.50785616 303.63366896 275.98423767 319.27217102 C263.58112864 331.13190575 248.20625101 335.30320351 231.52255249 335.28761292 C230.52189556 335.29058404 229.52123862 335.29355516 228.49025875 335.29661632 C225.14506285 335.30527155 221.79990286 335.30680888 218.45469666 335.30830383 C216.05276412 335.31293429 213.65083232 335.31795926 211.24890137 335.323349 C204.72792397 335.33645398 198.20695342 335.3429516 191.6859653 335.34735966 C187.60846309 335.35012851 183.53096322 335.35436705 179.4534626 335.35886383 C168.14778893 335.37105245 156.84211713 335.38135215 145.53643703 335.38473892 C144.45229006 335.38506827 144.45229006 335.38506827 143.34624112 335.38540427 C142.62181705 335.38562255 141.89739297 335.38584083 141.15101665 335.38606572 C139.6832329 335.38650918 138.21544915 335.38695574 136.74766541 335.3874054 C136.01960503 335.38762683 135.29154465 335.38784826 134.54142184 335.38807639 C122.75635189 335.39202056 110.97134392 335.40946475 99.18629789 335.43276492 C87.06549321 335.45653398 74.94471956 335.46894332 62.82389122 335.47010684 C56.02712599 335.47102055 49.23044151 335.47669577 42.43369865 335.49492645 C36.03556834 335.5114563 29.63759076 335.51353873 23.23944664 335.50478745 C20.89904622 335.50401967 18.55863742 335.50832525 16.2182579 335.5182457 C-5.19211544 335.60363384 -24.20404088 333.92444758 -40.39076233 318.14717102 C-50.92339714 305.96707663 -55.72327289 292.91499244 -55.64472961 276.97615051 C-55.64940959 275.49793674 -55.64940959 275.49793674 -55.6541841 273.98986006 C-55.66212166 270.7082507 -55.65585701 267.42682843 -55.64955139 264.1452179 C-55.65226313 261.7841379 -55.6558251 259.42305875 -55.66017151 257.0619812 C-55.66927593 250.66333243 -55.66575924 244.26474828 -55.65941334 237.8660984 C-55.65585217 233.86668403 -55.65653042 229.86727405 -55.65839386 225.86785889 C-55.65870033 225.20281474 -55.65900679 224.5377706 -55.65932254 223.8525736 C-55.65996203 222.50132199 -55.66061046 221.15007037 -55.66126773 219.79881877 C-55.66696346 207.14413917 -55.66042502 194.48948861 -55.64966699 181.83481377 C-55.64073217 170.98921129 -55.64228442 160.14365163 -55.65150452 149.29804993 C-55.66222053 136.686985 -55.66641421 124.07594549 -55.66027999 111.46487665 C-55.65964293 110.11874549 -55.65901418 108.77261432 -55.65839386 107.42648315 C-55.65808531 106.76425388 -55.65777676 106.1020246 -55.65745886 105.41972777 C-55.65573591 100.76509962 -55.65873671 96.11049653 -55.66335297 91.45587158 C-55.66913796 85.18496711 -55.6651083 78.91414337 -55.65356445 72.6432476 C-55.65092406 70.34428987 -55.65167234 68.04532532 -55.65608978 65.74637032 C-55.6615711 62.6035529 -55.65467961 59.46099266 -55.64472961 56.31819153 C-55.64919106 55.41282764 -55.6536525 54.50746375 -55.65824914 53.57466459 C-55.56184489 37.82857517 -49.15761488 24.73171267 -38.15248108 13.70967102 C-26.94425768 3.30996161 -14.99119201 -0.00283867 0 0 Z M-17.57826233 35.33467102 C-18.21119202 35.86447571 -18.8441217 36.3942804 -19.49623108 36.94013977 C-24.82335103 43.14595992 -25.97870363 49.11406829 -25.90542603 57.11528015 C-25.91237155 58.09102891 -25.91931708 59.06677766 -25.92647308 60.07209456 C-25.94470364 63.32701057 -25.93448943 66.58119448 -25.92420959 69.83613586 C-25.93127007 72.17574609 -25.94001563 74.51535175 -25.95031738 76.85494995 C-25.97280746 83.20006156 -25.96987222 89.54492367 -25.96099591 95.89005995 C-25.95523594 101.86180672 -25.9649314 107.83352478 -25.97328376 113.80526419 C-25.98984681 126.3560355 -25.98115623 138.90669427 -25.96429818 151.45745881 C-25.94960686 162.92514439 -25.96422412 174.39256782 -25.99306834 185.86021964 C-26.0225034 197.65109915 -26.03342241 209.44185785 -26.02388614 221.23277247 C-26.01882172 227.8460996 -26.02115415 234.45926156 -26.04167366 241.07256699 C-26.06004953 247.29271421 -26.05404792 253.51237506 -26.02947426 259.73249626 C-26.02447242 262.01168132 -26.02793972 264.29090356 -26.04062271 266.57005882 C-26.0566019 269.68895951 -26.04155523 272.80626809 -26.01895142 275.9250946 C-26.03078714 276.82044587 -26.04262287 277.71579715 -26.05481726 278.63828027 C-25.92948559 287.18918382 -22.75477411 294.05177351 -16.70326233 300.08467102 C-10.10098054 306.04282776 -0.5841266 306.59134983 7.88032532 306.53485107 C8.86453889 306.54023661 9.84875247 306.54562215 10.8627907 306.55117089 C14.13436024 306.56538675 17.40552151 306.55836242 20.67710876 306.55122375 C23.0334709 306.55693066 25.38983027 306.56389615 27.7461853 306.57202148 C34.12846674 306.58993289 40.51061053 306.5887882 46.89290953 306.5830791 C50.88415159 306.58076391 54.87537287 306.58298243 58.86661148 306.58755684 C59.86267521 306.58867947 59.86267521 306.58867947 60.87886143 306.58982478 C62.22817433 306.59135638 63.57748721 306.59289472 64.92680009 306.59443975 C77.56060161 306.60814565 90.19434108 306.60274068 102.82814117 306.59125454 C114.36544335 306.58132517 125.90258509 306.59426105 137.43986253 306.61818873 C149.30990398 306.6426195 161.17987082 306.65217779 173.04993689 306.64553601 C179.70463402 306.64205247 186.35922605 306.64455654 193.0139122 306.66178703 C199.27342445 306.6772876 205.53263111 306.6732657 211.79213142 306.65448189 C214.08338044 306.65080462 216.37465225 306.65387917 218.6658802 306.66436768 C239.41055912 307.0923559 239.41055912 307.0923559 256.98814392 297.15107727 C262.51913728 290.31396982 263.75805352 282.62003844 263.74967957 274.08404541 C263.75265069 273.1452372 263.75562181 272.20642899 263.75868297 271.23917204 C263.76738492 268.07950848 263.7688795 264.91988274 263.77037048 261.76020813 C263.7749977 259.50015685 263.78002223 257.24010635 263.78541565 254.98005676 C263.79855341 248.82893299 263.80498763 242.67782014 263.80942631 236.52668452 C263.81235563 232.68374849 263.81646024 228.84081546 263.82093048 224.99788094 C263.83304268 214.35289441 263.84342287 203.70791154 263.84680557 193.06291866 C263.84702514 192.38152145 263.8472447 191.70012423 263.84747092 190.99807862 C263.8476892 190.31506453 263.84790748 189.63205043 263.84813237 188.92833894 C263.84857583 187.5443331 263.8490224 186.16032725 263.84947205 184.77632141 C263.84969348 184.08980901 263.84991491 183.4032966 263.85014305 182.69598079 C263.85408706 171.58370456 263.87152798 160.47149407 263.89483157 149.35924321 C263.91857729 137.94370804 263.93075127 126.52822057 263.93217349 115.11265761 C263.93322119 108.70607787 263.93912137 102.29959076 263.9569931 95.89303398 C263.97348724 89.86267384 263.97562264 83.83247581 263.9668541 77.80210114 C263.96608437 75.5922534 263.97041791 73.3823969 263.98031235 71.17257118 C263.99305748 68.14791641 263.9871408 65.12383352 263.97673035 62.09918213 C263.98478675 61.23154785 263.99284316 60.36391356 264.00114369 59.46998733 C263.93747756 51.52143708 262.5276752 43.33667393 257.04673767 37.27217102 C256.14761658 36.22416321 256.14761658 36.22416321 255.23033142 35.15498352 C248.20593065 29.77414597 240.63358327 28.5572778 232.00079346 28.64596558 C230.98038363 28.64043118 229.95997381 28.63489678 228.90864247 28.62919468 C225.51472361 28.61566193 222.12154957 28.63051757 218.72764587 28.64546204 C216.28435454 28.64167627 213.84106536 28.63617411 211.39778137 28.62908936 C205.46642273 28.61659855 199.53525891 28.62267752 193.60392252 28.63776494 C186.69063447 28.65467709 179.7773989 28.65140838 172.86409654 28.64767086 C160.52771704 28.6418012 148.19143983 28.65593042 135.85508728 28.68061829 C123.89411081 28.7045521 111.9332709 28.71161533 99.97227478 28.7011261 C86.93161512 28.68971046 73.89101852 28.68779358 60.85035962 28.7022242 C59.45934404 28.70374997 58.06832845 28.70527033 56.67731285 28.7067852 C55.65081996 28.70792192 55.65081996 28.70792192 54.60358984 28.70908161 C49.78821042 28.71381823 44.97285922 28.71197754 40.15748024 28.7077198 C33.6755992 28.70227195 27.19386517 28.71305893 20.71201706 28.73467445 C18.33320821 28.74023948 15.95438119 28.74071024 13.57557106 28.73572159 C10.32908118 28.72976695 7.08316882 28.74227791 3.83673096 28.75949097 C2.89509592 28.75348092 1.95346088 28.74747088 0.98329145 28.74127871 C-6.39556761 28.81244153 -11.87520915 30.38418569 -17.57826233 35.33467102 Z " fill="#036FCE" transform="translate(131.39076232910156,82.85282897949219)"/>
<path d="M0 0 C1.97963745 0.01135986 1.97963745 0.01135986 3.99926758 0.02294922 C20.76321475 0.30685561 35.52631627 4.30159262 48.05078125 16.0390625 C58.33448783 27.93020345 59.125 39.0885311 59.125 54.4375 C46.915 54.4375 34.705 54.4375 22.125 54.4375 C21.135 48.4975 21.135 48.4975 20.125 42.4375 C18.354933 37.71732134 16.38818912 35.15043853 12.125 32.4375 C5.41657657 29.75413063 -2.88068471 28.98526312 -9.75 31.625 C-13.6353255 33.87848879 -16.8367438 36.36098759 -18.875 40.4375 C-19.59616756 47.13405589 -19.73238668 53.15170569 -15.5859375 58.70703125 C-7.13702715 67.25239035 6.62686777 71.06802709 17.6953125 75.12109375 C34.78383725 81.42552702 49.84609665 88.87135002 58.8984375 105.43359375 C64.16956894 118.34282965 64.42791978 136.54819677 59.125 149.4375 C53.04727746 161.60941587 43.79868333 169.61893424 31.125 174.4375 C10.86888733 181.02412016 -13.55425739 180.94515709 -33.09765625 171.9375 C-47.14431622 164.35111824 -54.12535906 154.54096072 -58.875 139.4375 C-60.17351077 133.54425882 -59.875 128.71623829 -59.875 122.4375 C-47.665 122.4375 -35.455 122.4375 -22.875 122.4375 C-22.215 126.3975 -21.555 130.3575 -20.875 134.4375 C-18.09225299 140.62138224 -16.06145225 144.27846055 -9.875 147.4375 C-2.96449039 149.77277566 8.20175375 149.87044596 14.8125 146.8125 C18.91332804 144.27216405 21.96506289 140.75737422 24.125 136.4375 C24.60955385 130.6864018 24.97773008 125.31350617 22.5625 120 C21.758125 119.154375 20.95375 118.30875 20.125 117.4375 C19.68542969 116.95152344 19.24585938 116.46554687 18.79296875 115.96484375 C11.86245558 109.10451299 1.78853019 106.43043269 -7.14453125 103.08203125 C-8.27076904 102.65696289 -9.39700684 102.23189453 -10.55737305 101.79394531 C-12.79555823 100.95270132 -15.03775145 100.12201872 -17.28442383 99.30371094 C-32.6200448 93.56577504 -45.24128766 86.3081228 -52.875 71.4375 C-56.12383541 64.20314231 -56.33128964 57.34444992 -56.25 49.5 C-56.26160156 48.38431641 -56.27320313 47.26863281 -56.28515625 46.11914062 C-56.24291578 34.10172602 -53.2924733 23.54457021 -45.09375 14.46484375 C-32.27497869 2.51291558 -16.99859422 -0.13669174 0 0 Z " fill="#026FCE" transform="translate(248.875,157.5625)"/>
</svg>
